<svg xmlns="http://www.w3.org/2000/svg" xmlns:xlink="http://www.w3.org/1999/xlink" width="94.131" height="20" viewox="0 0 94.131 20"><g transform="translate(0)"><path d="M55.888,20a4.272,4.272,0,0,1-2.275-.434c-.655-.512-.635-1.625-.62-2.437,0-.113,0-.22,0-.319V3.257c0-3.09.33-3.178,3.894-3.178h7.658c1.639,0,2.435.066,2.823.455.553.525.516,1.921.494,2.755,0,.15-.007.279-.007.39H57.345V8.055h6.3c1.593,0,2.37.066,2.758.455.554.525.517,1.9.494,2.722,0,.15-.008.28-.008.39h-9.54v4.734h6.977c1.824,0,2.585.114,3.018.454.583.555.549,1.9.526,2.786,0,.143-.007.278-.007.391H56.891c-.117,0-.256,0-.4.006C56.307,20,56.1,20,55.888,20Zm38.243-.011h-.1c-1.79,0-2.46,0-3.013-.034-1.833-.12-2.266-.755-3.128-2.02l-.082-.12-.133-.194-3.44-4.993L80.7,17.847c-1.358,2.02-1.439,2.141-5,2.141H74.336L81.7,9.514,74.855.014h.115l.2,0h.323c.272,0,.54-.005.828-.005a12.134,12.134,0,0,1,3.4.3,4.063,4.063,0,0,1,1.729,1.757c.042.067.082.129.122.189l2.66,3.956,2.661-3.956.026-.04c1.434-2.2,1.434-2.2,6.691-2.2l-6.846,9.5L94.13,19.986Zm-72.941,0h0c-1.581,0-2.3,0-2.789-.033-1.888-.128-2.143-.78-2.7-2.208l-.024-.062-.552-1.393H6.035l-.486,1.393c-.877,2.3-.877,2.3-5.549,2.3L6.912,2.479C7.785.153,7.991.014,10.579.014h2.6L21.19,19.985ZM10.579,3.808,7.269,12.983h6.652ZM35.033,19.986h-2.5L24.486.014h.081c.113,0,.225,0,.362,0h.127c.25,0,.5-.007.757-.007a7.575,7.575,0,0,1,2.957.4c.643.406,1.008,1.2,1.493,2.626l4.77,12.9,4.836-12.9.022-.061C40.939.014,40.939.014,45.644.014L38.538,17.263c-.06.133-.125.29-.182.427l0,.008,0,.006,0,.006a5.144,5.144,0,0,1-1.076,1.854A3.5,3.5,0,0,1,35.033,19.986Z" fill="#fff"></path></g></svg>