<?xml version="1.0" standalone="no"?>
<!DOCTYPE svg PUBLIC "-//W3C//DTD SVG 20010904//EN"
 "http://www.w3.org/TR/2001/REC-SVG-20010904/DTD/svg10.dtd">
<svg version="1.0" xmlns="http://www.w3.org/2000/svg"
 width="3008.000000pt" height="3008.000000pt" viewBox="0 0 3008.000000 3008.000000"
 preserveAspectRatio="xMidYMid meet">
<metadata>
Created by potrace 1.14, written by Peter Selinger 2001-2017
</metadata>
<g transform="translate(0.000000,3008.000000) scale(0.100000,-0.100000)"
fill="#000000" stroke="none">
<path d="M3087 18224 c-1 -1 -45 -5 -97 -9 -138 -10 -168 -14 -258 -40 -58
-17 -127 -49 -148 -69 -7 -6 -26 -21 -42 -34 -63 -48 -170 -221 -229 -367 -23
-58 -71 -181 -98 -250 -15 -38 -33 -85 -42 -103 -8 -18 -16 -40 -18 -50 -5
-19 -97 -253 -125 -317 -22 -50 -32 -77 -35 -91 -2 -6 -10 -27 -19 -45 -8 -19
-31 -74 -49 -124 -49 -129 -186 -474 -203 -512 -8 -17 -14 -35 -14 -40 -1 -4
-9 -26 -20 -48 -11 -22 -19 -44 -20 -48 0 -5 -6 -23 -14 -40 -8 -18 -36 -86
-61 -152 -25 -66 -63 -160 -83 -210 -20 -49 -37 -92 -38 -95 0 -3 -6 -18 -13
-35 -7 -16 -57 -145 -112 -285 -55 -140 -107 -269 -115 -287 -7 -17 -14 -33
-14 -36 0 -3 -5 -18 -12 -34 -6 -15 -12 -30 -13 -33 -1 -3 -9 -22 -18 -44 -9
-21 -17 -42 -17 -47 0 -5 -4 -17 -10 -27 -9 -16 -149 -366 -154 -387 -2 -5
-10 -27 -20 -47 -9 -21 -16 -39 -16 -41 0 -3 -8 -22 -17 -43 -9 -22 -18 -43
-19 -49 -3 -16 -93 -238 -104 -257 -6 -10 -10 -23 -10 -29 0 -6 -6 -25 -14
-42 -8 -18 -35 -84 -59 -147 -24 -63 -48 -124 -52 -135 -5 -11 -7 -23 -7 -27
1 -5 -3 -8 -8 -8 -6 0 -10 -6 -10 -13 0 -8 -23 -70 -51 -138 -28 -68 -52 -128
-53 -134 -4 -15 -17 -47 -27 -70 -4 -11 -47 -117 -93 -235 -47 -118 -90 -228
-97 -245 -7 -16 -13 -32 -13 -35 -1 -4 -67 -171 -101 -255 -7 -16 -31 -79 -55
-140 -24 -60 -49 -123 -56 -140 -7 -16 -31 -79 -55 -140 -23 -60 -47 -116 -52
-123 -8 -10 -7 -16 1 -21 13 -8 630 -6 807 3 130 6 249 16 279 22 11 3 32 6
46 8 73 8 154 32 226 66 153 73 230 179 347 476 31 76 64 166 76 199 11 33 36
105 56 160 20 55 37 105 39 112 1 7 5 16 9 19 4 4 7 13 7 20 0 7 5 25 12 41 6
15 11 31 10 36 -1 4 4 8 11 8 6 1 661 2 1454 3 l1442 1 22 -50 c12 -27 25 -59
29 -70 5 -11 15 -36 24 -57 9 -20 16 -39 16 -43 0 -4 6 -21 14 -38 8 -18 40
-97 71 -177 164 -422 237 -533 418 -633 26 -15 47 -24 47 -22 0 3 18 -4 40
-15 22 -11 40 -18 40 -15 0 2 12 0 26 -6 15 -5 45 -12 67 -15 22 -2 43 -6 47
-9 3 -2 35 -7 71 -10 35 -3 87 -8 114 -11 28 -3 240 -7 473 -8 421 -3 440 -1
414 30 -4 5 -23 47 -41 94 -42 108 -46 118 -64 160 -8 19 -50 123 -92 230 -42
107 -83 209 -90 225 -7 17 -99 246 -205 510 -105 264 -198 494 -205 510 -7 17
-29 71 -48 120 -20 50 -41 104 -48 120 -7 17 -13 32 -14 35 -1 3 -7 18 -13 33
-7 16 -12 30 -12 33 0 2 -9 23 -19 47 -11 23 -36 85 -56 137 -21 52 -44 111
-52 130 -8 19 -18 44 -23 55 -4 11 -17 43 -28 70 -11 28 -39 97 -62 155 -22
58 -45 114 -50 125 -5 11 -19 45 -30 75 -35 88 -42 103 -58 135 -9 17 -15 31
-13 33 3 3 -24 73 -59 157 -9 22 -29 72 -45 110 -15 39 -34 82 -42 98 -8 15
-12 27 -9 27 3 0 -5 24 -18 53 -23 53 -38 88 -41 97 -1 3 -5 14 -10 25 -50
122 -147 362 -149 370 -2 6 -8 21 -13 35 -6 14 -97 241 -203 505 -106 264
-197 491 -203 505 -6 14 -11 27 -12 30 -1 3 -6 16 -12 30 -14 33 -77 194 -78
200 -1 3 -11 27 -23 53 -12 27 -22 51 -22 54 0 3 -6 19 -14 36 -38 89 -51 122
-48 124 2 2 -4 16 -12 31 -8 15 -32 72 -54 127 -21 55 -43 109 -47 120 -5 11
-9 22 -10 25 -4 13 -26 67 -34 85 -5 11 -28 67 -51 125 -40 102 -49 125 -70
173 -5 12 -18 45 -29 72 l-19 50 -561 0 c-309 0 -563 0 -564 -1z m362 -1401
c35 -98 67 -187 72 -198 5 -11 18 -47 29 -80 12 -33 25 -69 30 -80 15 -36 77
-207 111 -305 16 -48 24 -68 42 -115 9 -22 28 -74 43 -115 14 -41 40 -111 56
-155 16 -44 36 -100 44 -125 8 -25 19 -55 25 -67 23 -55 28 -70 40 -108 7 -22
13 -42 14 -45 0 -3 3 -10 7 -15 6 -9 56 -145 62 -170 2 -5 8 -23 15 -40 6 -16
15 -41 20 -55 5 -14 13 -34 17 -45 4 -11 8 -22 8 -25 1 -3 6 -18 13 -35 11
-30 37 -100 72 -197 11 -29 23 -62 27 -73 4 -11 8 -22 9 -25 1 -3 5 -14 9 -25
15 -39 19 -50 21 -55 1 -3 4 -12 8 -20 3 -8 38 -105 78 -215 39 -110 84 -234
99 -276 l28 -76 -337 0 c-186 0 -342 -3 -348 -6 -7 -4 -14 -4 -16 0 -6 10
-210 9 -225 -1 -7 -4 -12 -4 -12 1 0 10 -372 9 -388 -1 -7 -4 -12 -4 -12 1 0
4 -51 7 -112 5 -62 -1 -120 -2 -128 -2 -8 0 -133 1 -277 1 -202 1 -263 5 -263
14 0 7 9 34 19 61 11 27 36 96 56 154 20 58 41 114 46 125 4 11 22 61 40 110
38 109 93 259 109 300 6 17 11 30 10 30 -1 0 1 7 4 15 37 104 68 188 73 200 3
8 7 20 9 25 1 6 19 55 39 110 20 55 57 156 81 225 24 69 47 132 51 140 3 8 7
17 8 20 5 20 30 90 40 115 7 17 36 95 64 175 29 80 56 154 61 165 7 17 32 91
35 105 1 3 8 21 16 40 9 19 19 49 23 65 4 17 14 44 21 60 7 17 30 77 51 135
20 58 45 128 55 155 9 28 34 95 54 150 20 55 46 128 57 163 11 34 24 62 27 62
4 0 35 -80 70 -177z"/>
<path d="M7830 18219 c0 -8 11 -37 31 -84 11 -25 90 -224 230 -575 61 -151
116 -288 124 -305 7 -16 21 -50 31 -75 10 -25 25 -63 34 -85 9 -22 29 -71 45
-110 15 -38 34 -82 41 -97 8 -15 14 -31 14 -35 -1 -7 12 -40 46 -120 8 -17 30
-73 50 -125 20 -51 39 -97 42 -103 4 -5 7 -14 8 -20 2 -8 50 -128 87 -215 6
-14 11 -27 12 -30 1 -3 6 -14 10 -25 35 -84 107 -263 110 -275 3 -14 28 -74
61 -147 8 -17 14 -34 14 -38 0 -3 8 -25 18 -48 10 -23 27 -62 36 -87 10 -25
23 -56 28 -70 6 -14 15 -34 20 -44 6 -11 14 -31 18 -45 5 -14 45 -116 90 -226
45 -110 83 -204 84 -210 3 -11 20 -52 40 -100 8 -16 30 -73 51 -125 21 -52 43
-108 50 -125 7 -16 22 -55 34 -85 13 -30 29 -68 37 -83 8 -16 14 -34 14 -40 0
-7 7 -25 16 -42 9 -16 17 -37 19 -45 2 -8 38 -98 80 -200 42 -102 77 -189 79
-195 2 -5 8 -21 13 -35 6 -14 39 -95 73 -180 34 -85 68 -168 75 -185 7 -16 20
-50 30 -75 9 -25 23 -58 30 -75 13 -30 123 -303 197 -490 53 -134 54 -136 67
-165 23 -51 262 -646 266 -663 2 -9 7 -23 12 -30 4 -6 8 -16 9 -22 1 -5 11
-30 22 -55 11 -25 31 -72 44 -105 l25 -59 559 -2 c527 -3 564 -2 644 17 47 11
90 21 97 22 7 2 16 6 19 10 4 4 14 7 21 7 32 0 182 82 206 113 14 18 34 43 46
57 32 38 34 41 72 100 48 73 119 199 119 211 0 5 6 20 14 32 8 12 28 61 45
110 17 48 42 112 56 142 14 31 25 58 25 60 0 5 120 296 140 340 5 11 84 202
175 425 91 223 171 416 177 430 6 14 14 34 19 45 4 11 16 38 25 60 9 22 31 78
50 125 19 47 38 94 43 105 5 11 16 36 25 57 9 20 16 39 16 42 0 3 9 25 20 49
10 23 62 148 115 277 53 129 102 249 110 265 7 17 23 55 35 85 11 30 27 69 35
87 8 17 15 33 15 36 0 3 9 26 20 51 11 26 19 48 19 51 1 3 7 18 15 33 13 25
49 112 206 497 34 83 67 164 74 180 8 17 28 66 46 110 18 44 38 94 45 110 10
23 142 346 184 450 5 11 13 31 19 45 6 14 23 54 37 90 14 36 32 79 39 95 8 17
19 41 24 55 55 130 74 176 76 185 1 6 4 15 8 20 3 6 18 42 33 80 15 39 33 84
40 100 53 121 78 180 79 189 1 6 12 32 24 58 12 26 22 49 22 52 0 2 10 26 22
53 11 26 22 53 24 58 1 6 10 28 20 50 10 22 18 42 19 45 0 4 27 69 85 205 4
11 21 52 36 90 15 39 31 74 36 80 4 5 8 16 8 25 0 14 -34 16 -342 14 -189 -1
-343 -3 -343 -4 0 0 -40 -3 -90 -5 -207 -10 -280 -19 -415 -52 -100 -24 -139
-41 -228 -97 -41 -26 -126 -117 -152 -164 -8 -15 -18 -29 -22 -32 -11 -8 -95
-191 -110 -238 -7 -23 -16 -42 -20 -42 -5 0 -8 -6 -8 -12 0 -7 -25 -83 -56
-168 -49 -138 -66 -183 -94 -255 -37 -92 -60 -157 -60 -165 0 -6 -9 -29 -19
-53 -16 -35 -337 -883 -345 -912 -2 -5 -6 -19 -10 -30 -29 -76 -65 -173 -72
-190 -4 -11 -8 -22 -9 -25 -2 -6 -11 -30 -28 -75 -7 -16 -12 -32 -13 -35 0 -3
-5 -16 -11 -30 -6 -14 -56 -149 -113 -300 -57 -151 -107 -286 -113 -300 -6
-14 -11 -29 -13 -35 -5 -19 -255 -684 -274 -730 -5 -11 -27 -72 -50 -135 -36
-99 -52 -141 -95 -255 -5 -11 -9 -24 -11 -30 -2 -5 -37 -100 -79 -210 -42
-110 -83 -220 -92 -245 -8 -25 -21 -58 -28 -75 -7 -16 -25 -63 -40 -104 -31
-83 -32 -83 -71 29 -27 77 -30 85 -57 155 -9 22 -32 85 -52 140 -20 55 -40
109 -45 120 -5 11 -20 54 -35 95 -24 67 -39 107 -65 175 -5 11 -45 121 -90
245 -46 124 -92 250 -103 280 -12 30 -22 57 -22 60 -1 3 -5 13 -8 23 -14 36
-20 52 -23 62 -11 35 -98 265 -110 289 -8 16 -14 35 -14 43 0 7 -4 21 -9 31
-5 9 -18 42 -29 72 -11 30 -34 91 -51 135 -17 44 -31 87 -31 96 0 8 -4 19 -10
25 -5 5 -16 30 -24 54 -8 25 -29 83 -47 130 -17 47 -40 108 -49 135 -10 28
-44 118 -75 200 -31 83 -57 155 -59 160 -2 6 -6 17 -9 25 -4 8 -25 67 -48 130
-22 63 -47 129 -54 145 -7 17 -16 41 -20 55 -3 14 -10 34 -15 45 -10 22 -48
124 -110 295 -23 63 -46 126 -52 140 -15 35 -24 60 -36 95 -6 17 -14 39 -18
50 -4 11 -8 23 -9 28 -2 4 -4 9 -5 12 -1 3 -3 8 -5 13 -1 4 -7 21 -14 37 -6
17 -19 50 -27 75 -9 25 -20 54 -24 65 -10 24 -29 77 -106 285 -61 169 -164
390 -194 420 -3 3 -18 23 -34 45 -37 52 -145 155 -161 155 -7 0 -15 4 -17 8
-2 6 -111 42 -178 58 -8 2 -42 10 -75 18 -33 8 -91 19 -130 25 -38 6 -86 14
-105 17 -49 10 -870 12 -870 3z"/>
<path d="M23920 18219 c0 -4 3 -9 8 -11 9 -4 92 -115 92 -123 0 -3 11 -18 25
-33 14 -15 25 -32 25 -39 0 -6 3 -13 8 -15 7 -3 100 -130 253 -343 35 -49 67
-91 72 -93 4 -2 7 -10 7 -17 0 -7 4 -15 8 -17 4 -1 23 -25 42 -53 19 -27 56
-78 83 -112 26 -34 47 -67 47 -72 0 -5 4 -11 8 -13 4 -1 23 -25 42 -53 19 -27
38 -52 41 -55 3 -3 21 -27 40 -54 19 -27 52 -75 74 -106 22 -31 50 -70 63 -86
12 -16 49 -67 82 -114 34 -47 66 -92 73 -100 7 -8 33 -44 58 -80 49 -70 199
-279 229 -320 10 -14 53 -72 94 -130 96 -133 104 -144 146 -202 19 -26 51 -70
70 -98 19 -28 42 -59 50 -69 8 -11 22 -29 30 -41 43 -62 223 -311 254 -352 20
-25 36 -49 36 -52 0 -3 11 -17 25 -32 14 -15 25 -33 25 -40 0 -7 3 -14 8 -16
4 -1 22 -23 39 -47 l32 -44 -27 -36 c-15 -20 -30 -37 -34 -39 -5 -2 -8 -8 -8
-13 0 -6 -5 -15 -10 -22 -10 -11 -122 -169 -192 -270 -18 -26 -39 -55 -46 -65
-7 -9 -64 -91 -128 -182 -63 -91 -122 -174 -130 -185 -145 -204 -224 -318
-224 -325 0 -5 -3 -10 -7 -12 -5 -1 -15 -13 -23 -25 -8 -12 -34 -48 -56 -80
-74 -104 -343 -488 -354 -503 -55 -79 -131 -187 -138 -196 -5 -5 -22 -30 -38
-55 -16 -24 -31 -46 -34 -49 -12 -11 -80 -110 -80 -116 0 -4 -10 -15 -22 -25
-11 -11 -18 -19 -15 -19 4 0 -17 -30 -44 -67 -28 -38 -54 -75 -57 -83 -3 -8
-9 -17 -12 -20 -13 -10 -110 -150 -110 -159 0 -5 -4 -11 -8 -13 -10 -4 -92
-114 -92 -123 0 -3 -5 -11 -10 -18 -11 -12 -74 -99 -98 -134 -7 -10 -50 -72
-97 -138 -46 -66 -89 -127 -95 -135 -6 -8 -44 -62 -84 -120 -41 -58 -72 -108
-70 -111 4 -7 904 -3 1009 5 64 4 158 13 225 21 22 2 146 31 175 40 6 2 21 6
35 11 111 35 252 147 351 280 24 32 47 61 50 64 7 6 201 289 229 335 10 17 22
35 27 40 13 16 127 183 138 203 24 40 99 147 107 150 4 2 8 8 8 13 0 11 42 72
53 77 4 2 7 10 7 18 0 8 5 14 10 14 6 0 10 7 10 15 0 8 5 15 10 15 6 0 10 4
10 9 0 11 131 205 142 209 4 2 8 8 8 13 0 6 18 34 40 64 22 30 40 59 40 65 0
5 5 10 10 10 6 0 10 6 10 13 0 7 11 24 25 39 14 15 25 29 25 32 0 4 148 227
167 251 4 6 57 83 117 173 60 89 112 162 115 162 5 -1 63 -84 96 -138 6 -9 18
-25 28 -36 9 -11 17 -23 17 -27 0 -4 6 -14 13 -21 7 -7 47 -65 90 -128 43 -63
106 -155 140 -205 35 -49 98 -142 142 -205 43 -63 82 -116 87 -118 4 -2 8 -8
8 -12 0 -7 126 -195 157 -235 4 -6 35 -51 68 -100 33 -49 68 -98 78 -109 9
-11 17 -24 17 -28 0 -5 11 -21 25 -36 14 -15 25 -32 25 -39 0 -7 4 -13 9 -13
5 0 13 -9 16 -20 3 -11 12 -26 19 -32 6 -7 45 -62 86 -123 41 -60 78 -114 83
-120 4 -5 30 -41 57 -80 76 -107 82 -115 124 -164 55 -65 124 -130 181 -172
59 -42 171 -99 195 -99 9 0 20 -3 24 -7 3 -4 12 -8 19 -10 7 -1 51 -12 100
-22 80 -19 112 -23 252 -37 28 -3 264 -6 526 -8 l476 -3 -16 28 c-9 16 -19 29
-23 29 -5 0 -8 4 -8 10 0 5 -21 38 -47 74 -27 35 -75 103 -108 151 -33 48 -64
93 -70 99 -5 7 -14 19 -20 28 -12 20 -305 438 -317 453 -10 12 -155 218 -218
310 -50 73 -56 81 -105 147 -19 26 -35 52 -35 57 0 6 -3 11 -8 11 -4 0 -18 18
-32 40 -14 22 -28 40 -32 40 -5 0 -8 6 -8 13 0 8 -9 22 -20 32 -11 10 -20 24
-20 31 0 7 -4 14 -8 16 -4 2 -50 64 -102 138 -52 74 -98 137 -102 138 -5 2 -8
10 -8 17 0 7 -3 15 -7 17 -5 2 -17 17 -29 33 -51 74 -118 171 -209 300 -54 77
-117 166 -139 198 -23 32 -66 93 -96 136 -30 43 -102 145 -159 227 -58 82
-109 150 -113 152 -4 2 -8 8 -8 13 0 6 -18 34 -40 63 -22 29 -40 58 -40 64 0
7 -4 12 -9 12 -7 0 -80 100 -90 125 -2 5 -15 21 -28 34 -12 14 -23 31 -23 38
0 7 -4 13 -8 13 -4 0 -16 13 -25 30 -17 28 -17 30 5 64 26 40 144 203 268 374
47 64 101 140 120 167 19 28 39 55 45 62 7 6 26 34 44 62 18 28 37 51 42 51 5
0 9 7 9 15 0 8 5 15 10 15 6 0 10 7 10 15 0 8 3 15 8 15 4 0 14 12 24 28 16
27 189 268 205 287 5 6 28 37 51 70 72 105 379 529 394 546 8 8 18 22 21 30 4
8 21 32 37 54 17 22 49 67 72 100 23 33 44 62 48 65 3 3 33 43 66 90 61 85
163 227 190 265 8 11 51 70 95 130 44 61 94 131 112 158 17 26 35 47 39 47 5
0 8 6 8 14 0 7 10 24 23 38 12 13 40 51 62 82 21 32 51 73 65 91 14 18 32 43
40 55 8 12 23 33 33 45 9 13 17 25 17 27 0 6 -766 1 -920 -6 -228 -10 -277
-14 -390 -31 -235 -36 -368 -95 -501 -225 -38 -36 -69 -72 -69 -78 0 -7 -4
-12 -8 -12 -5 0 -24 -21 -42 -47 -19 -27 -37 -50 -40 -53 -3 -3 -14 -18 -25
-35 -11 -16 -24 -37 -30 -45 -5 -9 -19 -31 -30 -48 -11 -18 -44 -67 -72 -108
-29 -41 -53 -79 -53 -84 0 -6 -4 -10 -9 -10 -5 0 -11 -8 -15 -17 -6 -17 -63
-104 -84 -128 -4 -6 -25 -37 -46 -70 -21 -33 -43 -61 -47 -63 -5 -2 -9 -8 -9
-13 0 -10 -62 -103 -72 -107 -5 -2 -8 -8 -8 -13 0 -10 -35 -62 -57 -87 -7 -7
-13 -17 -13 -22 0 -5 -6 -15 -13 -22 -11 -12 -58 -80 -82 -120 -34 -56 -211
-314 -217 -316 -5 -2 -8 -8 -8 -12 0 -11 -92 -144 -102 -148 -4 -2 -8 -9 -8
-17 0 -7 -6 -18 -14 -24 -11 -9 -20 -1 -47 41 -19 29 -37 58 -42 63 -28 36
-87 128 -87 135 0 6 -4 10 -10 10 -5 0 -10 5 -10 10 0 6 -9 20 -20 32 -11 12
-20 28 -20 35 0 7 -4 13 -8 13 -5 0 -17 16 -28 35 -10 19 -22 35 -26 35 -5 0
-8 5 -8 11 0 6 -15 32 -34 58 -18 25 -120 177 -227 336 -107 160 -197 292
-201 293 -5 2 -8 8 -8 13 0 11 -42 72 -52 77 -5 2 -8 8 -8 12 0 5 -18 35 -40
66 -22 32 -40 61 -40 65 0 15 -90 148 -139 207 -41 49 -77 85 -182 185 -11 9
-21 17 -24 17 -3 0 -14 8 -25 18 -10 9 -50 36 -89 59 -76 46 -148 67 -301 89
-44 6 -75 12 -75 14 0 1 -16 3 -35 5 -51 4 -140 15 -175 22 -44 9 -1045 11
-1045 2z"/>
<path d="M17797 18204 c-1 -1 -62 -5 -136 -8 -546 -28 -678 -144 -717 -631 -8
-111 -10 -5086 -1 -5160 4 -33 8 -67 10 -75 2 -8 7 -33 12 -55 4 -22 14 -55
22 -72 7 -18 11 -33 9 -33 -9 0 50 -99 83 -139 58 -71 239 -144 447 -179 28
-5 975 -8 2105 -8 l2054 1 0 270 c0 255 -4 343 -20 425 -35 179 -108 310 -198
355 -52 27 -167 63 -222 70 -11 2 -38 6 -60 10 -143 24 -333 28 -1602 29 -827
1 -1253 4 -1254 11 -1 6 -2 344 -3 753 -1 652 1 743 14 746 8 2 688 3 1510 2
822 -1 1502 2 1511 6 15 7 17 37 14 300 -1 161 -5 307 -9 323 -4 17 -14 62
-21 100 -34 164 -105 274 -210 324 -78 36 -104 43 -250 66 -95 15 -241 17
-1362 19 -650 1 -1186 5 -1190 10 -12 12 -10 1386 2 1387 5 1 762 2 1680 3
l1670 1 0 270 c-1 240 -4 317 -20 405 -3 14 -7 39 -10 55 -2 17 -9 44 -14 62
-5 17 -7 34 -3 37 3 3 0 6 -6 6 -6 0 -13 14 -17 31 -9 40 -55 108 -100 148
-51 45 -105 70 -205 96 -6 2 -107 17 -140 21 -104 14 -393 17 -1788 18 -871 0
-1584 0 -1585 0z"/>
</g>
</svg>
